<svg fill="none" height="320" viewBox="0 0 736 320" width="736" xmlns="http://www.w3.org/2000/svg"><g fill="#1ab552"><path d="m463.103 240.002v-60.231l6.841-10.678c-.334 8.676-2.114 16.073-5.339 22.19-3.226 6.007-7.564 10.567-13.014 13.681-5.45 3.115-11.735 4.672-18.853 4.672-6.452 0-12.291-1.168-17.519-3.504-5.228-2.447-9.733-5.784-13.515-10.01-3.67-4.338-6.562-9.288-8.675-14.849-2.003-5.673-3.004-11.791-3.004-18.353v-3.504c0-6.451 1.057-12.458 3.17-18.019 2.114-5.673 5.061-10.567 8.843-14.683 3.893-4.226 8.454-7.508 13.681-9.843 5.339-2.447 11.29-3.671 17.853-3.671 7.563 0 14.126 1.613 19.687 4.839 5.562 3.225 9.9 7.952 13.014 14.181 3.226 6.118 5.006 13.626 5.339 22.524h-3.67v-38.708h18.353v123.966zm-24.359-50.22c4.56 0 8.731-1.001 12.513-3.004 3.782-2.113 6.785-5.116 9.01-9.009 2.336-4.004 3.504-8.676 3.504-14.015v-6.674c0-5.339-1.168-9.788-3.504-13.347-2.336-3.671-5.395-6.452-9.177-8.343-3.781-2.002-7.897-3.003-12.346-3.003-5.005 0-9.455 1.224-13.348 3.671-3.781 2.336-6.785 5.728-9.009 10.177-2.114 4.338-3.17 9.344-3.17 15.016 0 5.673 1.112 10.678 3.337 15.016 2.224 4.227 5.227 7.564 9.009 10.011 3.893 2.336 8.287 3.504 13.181 3.504z"/><path d="m565.916 209.636c-7.453 0-14.015-1.557-19.688-4.672-5.673-3.225-10.122-7.897-13.347-14.014-3.226-6.118-5.006-13.515-5.339-22.191h3.503v37.874h-18.353v-121.7965h23.192v60.8985l-6.173 9.51c.445-9.343 2.28-17.13 5.505-23.358 3.337-6.229 7.787-10.901 13.348-14.015 5.561-3.115 11.846-4.672 18.853-4.672 6.229 0 11.902 1.168 17.019 3.504 5.116 2.336 9.51 5.617 13.18 9.844 3.671 4.115 6.452 8.954 8.342 14.515 2.003 5.562 3.004 11.624 3.004 18.186v3.504c0 6.562-1.001 12.68-3.004 18.353-2.002 5.672-4.894 10.678-8.675 15.016-3.782 4.226-8.343 7.563-13.682 10.01-5.227 2.336-11.123 3.504-17.685 3.504zm-5.172-19.521c5.005 0 9.343-1.223 13.013-3.67 3.782-2.559 6.73-6.007 8.843-10.345 2.114-4.338 3.17-9.343 3.17-15.016 0-5.784-1.056-10.789-3.17-15.016-2.113-4.226-5.061-7.508-8.843-9.843-3.67-2.336-8.008-3.504-13.013-3.504-4.561 0-8.788 1.001-12.681 3.003-3.781 2.002-6.896 4.95-9.343 8.843-2.336 3.893-3.504 8.564-3.504 14.015v6.673c0 5.228 1.224 9.677 3.671 13.348s5.617 6.507 9.51 8.509 8.009 3.003 12.347 3.003z"/><path d="m633.691 206.633v-90.597h23.191v90.597zm-12.68-73.245v-17.352h35.871v17.352zm21.189-28.196c-4.56 0-7.953-1.168-10.177-3.504-2.114-2.4472-3.17-5.4504-3.17-9.0098 0-3.7818 1.056-6.8406 3.17-9.1764 2.224-2.3358 5.617-3.5038 10.177-3.5038 4.561 0 7.897 1.168 10.011 3.5038 2.113 2.3358 3.17 5.3946 3.17 9.1764 0 3.5594-1.057 6.5626-3.17 9.0098-2.114 2.336-5.45 3.504-10.011 3.504z"/><path d="m722.985 207.801c-8.342 0-15.238-1.057-20.688-3.17-5.339-2.225-9.344-5.895-12.013-11.012-2.67-5.228-4.004-12.235-4.004-21.022l.167-82.0878h21.689l-.167 83.5888c0 4.449 1.168 7.898 3.504 10.345 2.447 2.335 5.895 3.503 10.344 3.503h14.182v19.855zm-51.054-74.746v-17.019h64.068v17.019z"/></g><g fill="#1bb553"><path d="m159.745 75.5137c46.2 0 83.652 37.4503 83.652 83.6483 0 46.197-37.452 83.648-83.652 83.648-46.199 0-83.6516-37.451-83.6516-83.648 0-46.198 37.4526-83.6483 83.6516-83.6483z"/><path d="m264.882 234.338c16.044 0 29.049 13.005 29.049 29.048 0 16.042-13.005 29.048-29.049 29.048-16.043 0-29.049-13.006-29.049-29.048 0-16.043 13.006-29.048 29.049-29.048z"/><path d="m46.1611 46.159c62.0959-62.0934 163.4069-61.4602 226.2849 1.4142 41.915 41.9136 56.167 100.9048 42.618 153.9748l-.026-.007c-1.478 5.001-6.104 8.652-11.584 8.652-6.672-.001-12.081-5.409-12.081-12.081 0-1.328.217-2.605.613-3.8 11.713-45.226-.14-95.2914-35.565-130.715-53.246-53.2434-139.575-53.2434-192.821 0-53.2456 53.243-53.2452 139.568.0007 192.812 35.4457 35.444 85.5513 47.29 130.7993 35.543 1.17-.377 2.416-.582 3.711-.582 6.672 0 12.081 5.408 12.081 12.08 0 5.477-3.645 10.099-8.642 11.58l.006.02c-53.071 13.548-112.0653-.704-153.9806-42.617-62.8774-62.874-63.5106-164.181-1.4143-226.274z"/></g></svg>
