<svg fill="none" height="599" viewBox="0 0 599 599" width="599" xmlns="http://www.w3.org/2000/svg"><path d="m86.3694 86.3697c116.1856-116.1854 305.7456-115.0003 423.3926 2.6465 78.426 78.4268 105.097 188.8098 79.745 288.1108l-.049-.014c-2.766 9.358-11.423 16.187-21.677 16.187-12.484 0-22.605-10.12-22.605-22.604 0-2.538.419-4.979 1.19-7.257 21.852-84.584-.343-178.195-66.587-244.439-99.627-99.6264-261.154-99.6266-360.78 0-99.625 99.626-99.6245 261.152.001 360.778 66.295 66.294 159.998 88.471 244.633 66.537 2.217-.727 4.585-1.122 7.045-1.122 12.484 0 22.604 10.122 22.604 22.605 0 10.248-6.82 18.901-16.168 21.672l.01.037c-99.3 25.351-209.682-1.319-288.1081-79.745-117.6466-117.647-118.8313-307.207-2.6465-423.3923zm409.2416 352.1113c30.018 0 54.352 24.334 54.352 54.353 0 30.017-24.334 54.352-54.352 54.352s-54.353-24.335-54.353-54.352c0-30.018 24.335-54.353 54.353-54.353zm-196.718-297.185c86.442 0 156.517 70.076 156.517 156.518s-70.075 156.518-156.517 156.518-156.518-70.076-156.518-156.518 70.076-156.517 156.518-156.518z" fill="#1ab553"/></svg>
