<svg fill="none" height="512" viewBox="0 0 512 512" width="512" xmlns="http://www.w3.org/2000/svg"><path d="m73.853 73.8526c99.348-99.3473 261.435-98.3338 362.032 2.2627 67.061 67.0607 89.867 161.4467 68.19 246.3567l-.042-.011c-2.365 8.002-9.768 13.842-18.536 13.842-10.675 0-19.329-8.655-19.329-19.329 0-2.17.357-4.257 1.017-6.204 18.685-72.327-.294-152.372-56.938-209.016-85.188-85.1879-223.305-85.1879-308.493 0-85.1874 85.188-85.1883 223.305-.001 308.493 56.687 56.687 136.811 75.651 209.18 56.896 1.896-.622 3.922-.959 6.026-.959 10.675 0 19.329 8.653 19.329 19.328-.001 8.762-5.832 16.161-13.825 18.531l.009.031c-84.91 21.677-179.297-1.128-246.3573-68.188-100.5964-100.598-101.6088-262.686-2.2617-362.0334zm349.933 301.0824c25.667 0 46.475 20.808 46.475 46.476s-20.808 46.476-46.475 46.476c-25.668 0-46.476-20.808-46.476-46.476 0-25.667 20.808-46.476 46.476-46.476zm-168.209-254.115c73.914 0 133.834 59.92 133.835 133.834 0 73.915-59.921 133.835-133.835 133.835-73.915 0-133.835-59.92-133.835-133.835 0-73.914 59.92-133.834 133.835-133.834z" fill="#1ab453"/></svg>